<svg width="892" height="285" viewBox="0 0 892 285" fill="none" xmlns="http://www.w3.org/2000/svg">
<rect width="891.552" height="284.091" fill="white"/>
<path d="M388.083 76.9191H369.018V180.759H388.083V76.9191Z" fill="#FF0D9E"/>
<path d="M396.886 180.75H415.932V76.7324L396.886 76.9103V180.75Z" fill="#FF0D9E"/>
<path d="M388.083 76.9191H369.018V180.759H388.083V76.9191Z" fill="#FF0D9E"/>
<path d="M396.886 180.75H415.932V76.7324L396.886 76.9103V180.75Z" fill="#FF0D9E"/>
<path d="M683.363 107.648C672.657 107.648 664.05 112.378 657.505 121.804V108.662H638.423V180.757H657.505V157.496C657.505 136.884 666.077 126.588 683.221 126.588H684.893H687.418L687.862 118.62L688.432 108.252C687.258 107.861 685.568 107.648 683.363 107.648Z" fill="#FF0D9E"/>
<path d="M683.363 107.648C672.657 107.648 664.05 112.378 657.505 121.804V108.662H638.423V180.757H657.505V157.496C657.505 136.884 666.077 126.588 683.221 126.588H684.893H687.418L687.862 118.62L688.432 108.252C687.258 107.861 685.568 107.648 683.363 107.648Z" fill="#FF0D9E"/>
<path d="M746.005 157.345C745.809 155.087 745.258 152.988 744.387 151.032C744.316 150.872 744.28 150.694 744.209 150.534C743.444 148.898 742.626 147.279 741.346 145.857C738.109 142.247 733.432 139.757 727.261 138.405L710.064 134.653C705.725 133.693 703.555 131.665 703.555 128.589C703.555 126.668 704.32 125.014 705.867 123.609C707.414 122.222 709.904 121.511 713.372 121.511C717.231 121.511 720.379 122.435 722.833 124.267C725.287 126.099 726.71 128.5 727.101 131.487L745.311 127.877C744.049 121.511 740.617 116.371 734.979 112.405C729.342 108.457 722.353 106.483 713.959 106.483C705.013 106.483 697.846 108.706 692.511 113.135C690.555 114.771 689.079 116.62 687.834 118.612C686.323 121.013 685.309 123.663 684.864 126.579C684.686 127.788 684.491 129.015 684.491 130.331C684.491 135.524 686.251 139.917 689.755 143.474C693.276 147.048 698.309 149.502 704.853 150.854L719.578 153.877C724.878 155.033 727.528 157.203 727.528 160.386C727.528 162.502 726.514 164.245 724.504 165.579C722.477 166.931 719.738 167.606 716.27 167.606C707.219 167.606 702.257 164.334 701.403 157.79L682.179 161.684C683.05 168.816 686.518 174.133 692.582 177.654C698.647 181.175 705.956 182.918 714.545 182.918C724.166 182.918 731.849 180.837 737.593 176.712C743.231 172.639 746.058 166.753 746.147 159.141C746.147 159.017 746.041 157.843 746.005 157.345Z" fill="#FF0D9E"/>
<path d="M329.118 106.483C329.029 106.483 328.958 106.501 328.869 106.501C308.631 106.643 292.234 123.076 292.234 143.349C292.234 143.598 292.288 143.829 292.305 144.078C292.305 144.292 292.252 144.487 292.252 144.683C292.252 165.792 308.755 182.9 329.1 182.9C342.349 182.9 353.891 175.591 360.382 164.708L344.021 158.714C340.34 163.16 335.093 166.077 329.1 166.077C321.293 166.077 314.589 161.24 311.299 154.268C317.096 155.193 323.054 155.691 329.118 155.691C331.145 155.691 333.137 155.549 335.129 155.442C339.059 155.229 342.936 154.873 346.759 154.286C353.144 153.29 359.386 151.797 365.397 149.823C365.717 147.991 365.877 146.088 365.93 144.167C365.93 143.883 366.002 143.616 366.002 143.331C365.984 123.005 349.48 106.483 329.118 106.483ZM329.118 138.885C323.249 138.885 317.363 138.263 311.565 137C312.864 132.732 315.46 129.176 318.803 126.721C319.977 125.957 321.115 125.139 322.431 124.641C323.125 124.374 323.836 124.107 324.583 123.929C325.117 123.787 325.668 123.751 326.201 123.645C327.162 123.502 328.122 123.342 329.118 123.342C330.132 123.342 331.11 123.502 332.07 123.663C332.586 123.751 333.119 123.805 333.635 123.947C334.4 124.143 335.111 124.409 335.84 124.676C337.156 125.174 338.294 125.992 339.468 126.775C342.794 129.211 345.39 132.768 346.671 137.036C340.855 138.245 334.987 138.885 329.118 138.885Z" fill="#FF0D9E"/>
<path d="M598.484 106.483C598.395 106.483 598.324 106.501 598.235 106.501C577.997 106.643 561.601 123.076 561.601 143.349C561.601 143.598 561.654 143.829 561.672 144.078C561.672 144.292 561.618 144.487 561.618 144.683C561.618 165.792 578.122 182.9 598.466 182.9C611.715 182.9 623.257 175.591 629.748 164.708L613.387 158.714C609.706 163.16 604.459 166.077 598.466 166.077C590.659 166.077 583.955 161.24 580.665 154.268C586.462 155.193 592.42 155.691 598.484 155.691C600.511 155.691 602.503 155.549 604.495 155.442C608.425 155.229 612.302 154.873 616.126 154.286C622.51 153.29 628.752 151.797 634.763 149.823C635.083 147.991 635.243 146.088 635.297 144.167C635.297 143.883 635.368 143.616 635.368 143.331C635.35 123.005 618.847 106.483 598.484 106.483ZM598.484 138.885C592.615 138.885 586.729 138.263 580.932 137C581.003 136.787 581.145 136.627 581.216 136.414C582.568 132.43 584.986 129.051 588.152 126.721C589.325 125.957 590.464 125.139 591.78 124.641C592.473 124.374 593.185 124.107 593.931 123.929C594.465 123.787 595.016 123.751 595.55 123.645C596.51 123.502 597.47 123.342 598.466 123.342C599.48 123.342 600.458 123.502 601.418 123.663C601.934 123.751 602.468 123.805 602.983 123.947C603.748 124.143 604.477 124.409 605.189 124.676C606.505 125.174 607.643 125.992 608.817 126.775C611.982 129.087 614.383 132.466 615.734 136.431C615.806 136.645 615.948 136.805 616.019 137.018C610.221 138.245 604.353 138.885 598.484 138.885Z" fill="#FF0D9E"/>
<path d="M780.621 106.483C780.532 106.483 780.461 106.501 780.372 106.501C760.134 106.643 743.738 123.076 743.738 143.349C743.738 143.598 743.791 143.829 743.809 144.078C743.809 144.292 743.755 144.487 743.755 144.683C743.755 165.792 760.259 182.9 780.603 182.9C793.852 182.9 805.394 175.591 811.885 164.708L795.524 158.714C791.843 163.16 786.597 166.077 780.603 166.077C772.796 166.077 766.092 161.24 762.802 154.268C768.617 155.193 774.557 155.691 780.621 155.691C782.649 155.691 784.64 155.549 786.632 155.442C790.562 155.229 794.439 154.873 798.263 154.286C804.647 153.29 810.889 151.797 816.9 149.823C817.22 147.991 817.38 146.088 817.434 144.167C817.434 143.883 817.505 143.616 817.505 143.331C817.505 123.005 800.984 106.483 780.621 106.483ZM780.621 138.885C774.753 138.885 768.866 138.263 763.069 137C763.14 136.787 763.282 136.627 763.353 136.414C764.705 132.43 767.123 129.051 770.289 126.721C771.463 125.957 772.601 125.139 773.917 124.641C774.628 124.374 775.322 124.107 776.069 123.929C776.602 123.787 777.153 123.751 777.687 123.645C778.647 123.502 779.608 123.342 780.603 123.342C781.617 123.342 782.595 123.502 783.556 123.663C784.071 123.751 784.605 123.805 785.12 123.947C785.885 124.143 786.597 124.409 787.326 124.676C788.642 125.174 789.78 125.992 790.954 126.775C794.119 129.087 796.52 132.466 797.871 136.431C797.943 136.645 798.085 136.805 798.156 137.018C792.376 138.245 786.508 138.885 780.621 138.885Z" fill="#FF0D9E"/>
<path d="M548.861 108.509L529.21 157.486L509.576 108.509H504.49L496.648 126.737L519.109 180.747H539.329L569.366 108.509H548.861Z" fill="#FF0D9E"/>
<path d="M476.357 108.509L472.818 116.707L456.742 153.876L455.995 156.312L447.885 133.94L440.754 116.725L437.357 108.527H416.123L446.018 178.453C443.173 186.349 438.904 189.194 429.852 189.194V207.298C435.454 207.583 440.363 206.871 444.773 205.324C452.794 202.496 459.036 196.574 463.748 186.758C463.873 186.509 463.98 186.206 464.086 185.957L493.252 118.575L497.591 108.527H476.357V108.509Z" fill="#FF0D9E"/>
<path d="M269.352 108.509V165.897V183.806C269.352 185.442 268.712 186.793 267.467 187.843C266.204 188.892 264.586 189.425 262.541 189.425C261.029 189.425 259.002 188.963 256.583 188.145C255.694 190.724 254.929 193.356 254.342 196.059L254.164 196.966C253.667 199.509 253.329 202.105 253.115 204.755C257.846 206.444 262.576 207.351 267.307 207.351C273.673 207.351 278.759 205.431 282.619 201.572C286.478 197.713 288.398 192.662 288.398 186.402V150.425V108.509H269.352Z" fill="#FF0D9E"/>
<path d="M210.356 145.151C210.356 141.399 209.965 137.735 209.396 134.143C209.307 133.609 209.254 133.076 209.147 132.542C208.507 129.146 207.6 125.856 206.48 122.672C206.266 122.05 206.053 121.463 205.822 120.858C204.612 117.711 203.207 114.652 201.571 111.753C201.322 111.308 201.038 110.882 200.771 110.437C198.975 107.432 197.019 104.515 194.796 101.83C194.724 101.759 194.653 101.687 194.6 101.616C182.08 86.5712 163.247 77.0035 142.173 77.0035C121.1 77.0035 102.266 86.5712 89.7645 101.599C89.6933 101.67 89.6222 101.741 89.5688 101.812C87.3459 104.497 85.3896 107.414 83.5935 110.419C83.3267 110.864 83.0422 111.291 82.7932 111.735C81.1571 114.652 79.7522 117.693 78.5429 120.841C78.3117 121.445 78.0983 122.032 77.8849 122.655C76.7645 125.856 75.8575 129.146 75.2173 132.525C75.1106 133.058 75.0573 133.592 74.9683 134.125C74.3815 137.735 73.9902 141.399 73.9902 145.151C73.9902 145.169 73.9902 145.169 73.9902 145.187V145.204C73.9902 149.295 74.417 153.278 75.1106 157.173C80.7481 159.022 86.4745 160.623 92.2898 162.028C91.8452 172.591 89.9245 178.14 84.2515 181.021C87.4881 186.232 91.365 190.944 95.8465 195.106C106.161 188.241 109.202 176.966 110.002 165.478C112.403 165.851 114.857 166.1 117.294 166.385V207.323H137.496V167.825C139.061 167.861 140.591 168.021 142.173 168.021C143.756 168.021 145.285 167.861 146.85 167.825V207.323H167.053V166.367C169.489 166.083 171.926 165.834 174.344 165.46C175.144 176.948 178.186 188.223 188.5 195.088C192.964 190.944 196.858 186.214 200.095 181.003C194.422 178.122 192.501 172.556 192.057 162.01C197.872 160.605 203.616 159.005 209.236 157.155C209.93 153.26 210.356 149.277 210.356 145.187V145.169C210.356 145.169 210.356 145.169 210.356 145.151ZM180.035 146.431C175.856 147.25 171.677 147.943 167.48 148.494C159.086 149.597 150.638 150.166 142.191 150.166C133.744 150.166 125.296 149.615 116.903 148.494C112.706 147.943 108.509 147.25 104.347 146.431C100.186 145.596 96.0244 144.635 91.8807 143.533C92.3075 130.035 98.0873 117.853 107.157 109.05C116.227 100.247 128.586 94.8229 142.191 94.8229C155.796 94.8229 168.155 100.247 177.225 109.05C186.295 117.853 192.075 130.017 192.501 143.533C188.358 144.635 184.196 145.613 180.035 146.431Z" fill="#FF0D9E"/>
</svg>
